<svg xmlns="http://www.w3.org/2000/svg" x="0px" y="0px" viewBox="0 0 96.9 74.4">
	<style type="text/css">
		.st0{fill:#FFFFFF;}
	</style>
	<path class="st0" d="M96,57.2c-1.4,0-1.8-0.5-1.8-1.3c0-0.8,0.5-1.4,1.3-1.4c0.9,0,1.5,0.6,1.4,1.4C96.8,56.5,96.2,57,96,57.2z"/>
	<path class="st0" d="M94.8,73.2c-0.2-1.3-0.4-2.5-0.6-3.8c-0.4-2.7-0.7-5.4-1.1-8c-0.6-3.4-1.2-6.9-1.9-10.3
		c-0.3-1.6-0.6-3.1-1-4.7c-0.2-0.6-0.4-1.6-1.4-1.5c-0.7,0.1-1.4,0.5-1.6,1.2c-0.7,2.3-1.7,5.2-2.3,7.5c-0.2,0.9-1.8,0.7-2.7,0.6
		c-5-0.2-7.9-0.2-12.9-0.3c-4.4,0-8.8,0.1-13.2,0.1c-2.8,0-5.5,0-8.3-0.1c-0.3,0-0.8-0.4-0.9-0.6c-0.1-1.6-0.2-3.2-0.2-4.8
		c0-3.6,0-7.1,0-10.7c0-0.9-0.5-1.1-1.2-1.2c-0.8-0.1-1.8,0.5-1.8,1c0,1.1-0.3,11.7-0.3,15c0,0.5-0.4,0.9-0.9,0.9
		c-1.7,0-2.8,0.2-4.3,0.2C37,54,35.8,53,35.6,51.7c-1.1-6-2.3-12-3.4-18c-0.6-3.2-1.1-6.3-1.7-9.5c-0.7-3.9-1.7-7.7-2.3-11.6
		C27.6,8.4,26.6,0,25,0c-1.7,0-4,7.6-4.8,10c-1.9,6.1-3.8,12.2-5.7,18.3C13,33.5,3,62.3,0.5,69.7c-1,3-0.7,4.3,1.7,4.3
		c0,0,2,0.4,3-1.8c2.7-5.8,17-52.9,19-58.5c0.2-0.6,1-3.9,1.1-3.2c2.8,14.8,5.1,27.3,7.8,42.2c0.1,0.5-0.3,1.1-0.9,1.1
		c-1.8,0.1-3.5,0.2-5.2,0.2c-3.6,0-7.2-0.2-10.8-0.2c-0.4,0-1,0.2-1.2,0.9c0,1.3,0.6,1,1,1.1c0.6,0.2,10.4,0.1,14.7,0.2
		c3,0,3,0.1,3.5,3.1c0,0,0,0.1,0,0.1c0.6,3.8,1.2,7.7,1.9,11.5c0.1,0.8,0.3,1.6,0.5,2.3c0.3,0.8,1.4,1.4,2.3,1
		c0.3-0.2,0.7-0.9,0.6-1.3c-0.7-3.9-1.6-7.8-2.3-11.7c-0.2-1.2-0.4-2.5-0.6-3.8c-0.1-0.5,0.3-1,0.9-1.1l5.3-0.1
		c0.5,0,0.9,0.4,0.9,0.8c0.3,4.2,0.1,7.8,0.6,11.8c0.2,1.4,0.3,2.8,1.2,4.2c1,1.4,1.8,1.2,2.7,1c1.1,0,2.1-2.2,2.5-2.8
		c0.7-1.1,1.3-2.6,1.9-3.8c1.4-2.9,2-3.1,2.5-3.2c0.4,0.1,0.7,0.5,1.1,1.4c0.8,1.9,1.5,5.9,2.3,7.7c0.5,1.1,2,1.7,2.6,0.7
		c1-0.8,2-4.2,2.5-6.8c0.2-0.9,0.5-3,1-3c0.6,0.1,1.1,7.2,2.5,9.2c0.3,0.4,1.1,0.8,1.4,0.7c0.6-0.2,1.4-0.6,1.7-1.2
		c0.5-1,1.4-3.6,2.1-5.8c0.3-0.9,1.5-0.8,1.7,0.1c0.4,1.5,0.8,3.2,1.3,4.4c0.6,1.8,1.1,2.6,2.5,2.6c1.7,0.5,3.5-1,4.1-2.5
		c0.9-1.4,3.9-13.4,5.1-15.4c0.2-0.4,3.3-0.2,3.4,0.9c0.7,4.7,2.1,16.4,2.4,17c0.2,0.3,0.4,0.2,1.1,0.2
		C94.7,73.9,94.9,74,94.8,73.2z M78.2,71c-0.4,0.2-1.6-4.2-2.3-7c-0.2-1.1-1.1-4.8-2.7-4.7c-1.5,0.1-2.7,5.5-3.6,9
		c-0.2,0.9-1.6,0.9-1.8,0c-0.2-0.9-0.4-1.7-0.5-2c-0.5-1.9-0.6-3.2-1-5.1c-0.3-1-1.2-1.7-1.9-1.7c-0.9,0-1.4,1-1.6,1.3
		c-0.6,1.3-1.4,4.9-2,7.6c-0.2,0.9-1.5,0.9-1.8,0c-0.6-2.6-1.5-6.1-2-7.8c-0.1-0.3-0.3-2.2-2-2.2c-1,0.1-1.4,1.1-1.7,1.6
		c-1.8,3.8-4.7,10.7-5.4,10.5c-0.6,0-1.1-3.8-1.3-7c-0.2-1.6,0-6.4,0.1-6.9c0.1-0.2,0.5-0.5,0.8-0.5c3.1,0,6.1,0.1,9.2,0.1
		c3.6,0,7.2-0.1,10.9-0.1c2.3,0,4.6,0,6.9,0.1c3.2,0.1,4,0.2,7.2,0.2c0.8,0,2.3-0.3,2.1,0.2C83,59.5,78.9,71.2,78.2,71z M88.9,54.4
		c-0.6,0-1.1-0.6-0.9-1.2c0.5-1.6,1.2-4.1,1.2-3.5l0.5,3.6C89.8,53.9,89.4,54.4,88.9,54.4C88.9,54.4,88.9,54.4,88.9,54.4z"/>
</svg>
